<svg width="75" height="75" viewBox="0 0 75 75" fill="none" xmlns="http://www.w3.org/2000/svg">
<rect width="75" height="75" rx="4" />
<g >
<path  d="M51.916 53.8446H24.0842C17.9725 53.8446 13 48.8722 13 42.7604V33.2396C13 27.1279 17.9725 22.1555 24.0842 22.1555H51.916C58.0277 22.1555 63 27.1279 63 33.2396V42.7604C63 48.8722 58.0277 53.8446 51.916 53.8446ZM24.0842 26.2708C20.2414 26.2708 17.1151 29.397 17.1151 33.2397V42.7605C17.1151 46.6032 20.2414 49.7294 24.0842 49.7294H51.916C55.7586 49.7294 58.8849 46.6032 58.8849 42.7605V33.2397C58.8849 29.397 55.7586 26.2708 51.916 26.2708H24.0842Z" fill="#baff39"/>
<path  d="M15.0122 42.7604V33.2396C15.0122 27.1279 19.9847 22.1555 26.0964 22.1555H24.0842C17.9725 22.1555 13 27.1279 13 33.2396V42.7604C13 48.8721 17.9725 53.8445 24.0842 53.8445H26.0964C19.9847 53.8446 15.0122 48.8722 15.0122 42.7604Z" fill="#baff39"/>
<path  d="M43.9836 42.7788C43.9836 43.4456 43.4431 43.9861 42.7763 43.9861H33.2186C32.5518 43.9861 32.0112 43.4456 32.0112 42.7788V33.221C32.0112 32.5542 32.5518 32.0137 33.2186 32.0137H42.7763C43.4431 32.0137 43.9836 32.5542 43.9836 33.221V42.7788Z" fill="#baff39"/>
</g>
</svg>
