<svg width="75" height="75" viewBox="0 0 75 75" fill="none" xmlns="http://www.w3.org/2000/svg">
<rect width="75" height="75" rx="4" fill="#EEEEEE"/>
<path d="M21.8 43.2002H54.2001M21.8 33.2002H54.2001M21.8 23.2002H54.2001" stroke="#989898" stroke-width="1.6" stroke-linecap="round"/>
<path d="M30 52.5V37.5C30 37.2239 29.7761 37 29.5 37H27.5C27.2239 37 27 37.2239 27 37.5V52.5C27 52.7761 27.2239 53 27.5 53H29.5C29.7761 53 30 52.7761 30 52.5Z" fill="#F4BC09"/>
<path d="M36 52.5V40.5C36 40.2239 35.7761 40 35.5 40H33.5C33.2239 40 33 40.2239 33 40.5V52.5C33 52.7761 33.2239 53 33.5 53H35.5C35.7761 53 36 52.7761 36 52.5Z" fill="#F4BC09"/>
<path d="M48 52.5V26.5C48 26.2239 47.7761 26 47.5 26H45.5C45.2239 26 45 26.2239 45 26.5V52.5C45 52.7761 45.2239 53 45.5 53H47.5C47.7761 53 48 52.7761 48 52.5Z" fill="#F4BC09"/>
<path opacity="0.91" d="M42 52.5V32.5C42 32.2239 41.7761 32 41.5 32H39.5C39.2239 32 39 32.2239 39 32.5V52.5C39 52.7761 39.2239 53 39.5 53H41.5C41.7761 53 42 52.7761 42 52.5Z" fill="#F4BC09"/>
<path d="M21.8 53.2002H54.2001" stroke="#989898" stroke-width="1.6" stroke-linecap="round"/>
</svg>
