<svg width="75" height="75" viewBox="0 0 75 75" fill="none" xmlns="http://www.w3.org/2000/svg">
<rect width="75" height="75" rx="4" fill="#EEEEEE"/>
<path d="M42.5 47H21.5C19.0147 47 17 48.3431 17 50V53C17 54.6569 19.0147 56 21.5 56H42.5C44.9853 56 47 54.6569 47 53V50C47 48.3431 44.9853 47 42.5 47Z" fill="#F4BC09"/>
<path d="M53 22.2002H27C24.349 22.2002 22.2 24.3492 22.2 27.0002V45.0002C22.2 47.6512 24.349 49.8002 27 49.8002H53C55.651 49.8002 57.8 47.6512 57.8 45.0002V27.0002C57.8 24.3492 55.651 22.2002 53 22.2002Z" fill="white" stroke="#989898" stroke-width="1.6"/>
<path d="M23 34.2002H57" stroke="#989898" stroke-width="1.6"/>
<path d="M53 37H27C26.4477 37 26 37.4477 26 38V45C26 45.5523 26.4477 46 27 46H53C53.5523 46 54 45.5523 54 45V38C54 37.4477 53.5523 37 53 37Z" fill="#989898"/>
<path d="M48.203 26.063L53 31M48 30.937L52.797 26" stroke="#989898" stroke-width="1.4"/>
</svg>
