<svg width="75" height="75" viewBox="0 0 75 75" fill="none" xmlns="http://www.w3.org/2000/svg">
<rect width="75" height="75" rx="4" fill="#EEEEEE"/>
<path d="M36.6881 41.0001H39.3376C40.8365 41.0001 41.5716 40.2363 41.5716 39.2167C41.5716 38.226 40.8685 37.6443 40.1717 37.6091V37.5452C40.8109 37.395 41.3159 36.9475 41.3159 36.1517C41.3159 35.1769 40.6128 34.4546 39.1938 34.4546H36.6881V41.0001ZM37.8738 40.0093V38.0917H39.181C39.9129 38.0917 40.3667 38.5392 40.3667 39.124C40.3667 39.645 40.0087 40.0093 39.149 40.0093H37.8738ZM37.8738 37.2384V35.4326H39.0723C39.769 35.4326 40.1302 35.8002 40.1302 36.3051C40.1302 36.8804 39.6636 37.2384 39.0467 37.2384H37.8738Z" fill="#323232"/>
<path d="M54.4041 36.6631C54.2027 35.2089 53.0841 34.3652 51.6331 34.3652C49.9233 34.3652 48.6353 35.6116 48.6353 37.7274C48.6353 39.8399 49.9073 41.0896 51.6331 41.0896C53.1896 41.0896 54.2219 40.0828 54.4041 38.8332L53.2088 38.8268C53.0586 39.5939 52.4321 40.0253 51.6491 40.0253C50.588 40.0253 49.8274 39.2295 49.8274 37.7274C49.8274 36.2508 50.5816 35.4294 51.6523 35.4294C52.4481 35.4294 53.0713 35.8801 53.2088 36.6631H54.4041Z" fill="#323232"/>
<path d="M27 32H22C18.6863 32 16 34.6863 16 38C16 41.3137 18.6863 44 22 44H27C30.3137 44 33 41.3137 33 38C33 34.6863 30.3137 32 27 32Z" fill="#F4BC09"/>
<path d="M22.7298 41.0001L23.2699 39.3861H25.7309L26.2742 41.0001H27.5398L25.2323 34.4546H23.7685L21.4642 41.0001H22.7298ZM23.5895 38.4337L24.4748 35.797H24.526L25.4113 38.4337H23.5895Z" fill="#323232"/>
</svg>
