<svg width="75" height="75" viewBox="0 0 75 75" fill="none" xmlns="http://www.w3.org/2000/svg">
<rect width="75" height="75" rx="4" fill="#EEEEEE"/>
<path d="M59 32H48C46.3431 32 45 33.3431 45 35V42C45 43.6569 46.3431 45 48 45H59C60.6569 45 62 43.6569 62 42V35C62 33.3431 60.6569 32 59 32Z" fill="#F4BC09"/>
<path d="M19.582 35.4542V42.0002H18.396V36.6082H18.358L16.827 37.5862V36.5002L18.454 35.4542H19.582ZM25.787 42.0002V41.1432L28.059 38.9162C28.277 38.6962 28.458 38.5012 28.602 38.3312C28.747 38.1612 28.856 37.9952 28.928 37.8362C29.001 37.6762 29.038 37.5062 29.038 37.3242C29.0429 37.1375 28.9936 36.9534 28.896 36.7942C28.8025 36.6448 28.6687 36.5249 28.51 36.4482C28.3352 36.3653 28.1435 36.3242 27.95 36.3282C27.7534 36.3235 27.5589 36.3693 27.385 36.4612C27.2255 36.5463 27.0944 36.6763 27.008 36.8352C26.9167 37.0142 26.8716 37.2133 26.877 37.4142H25.748C25.748 36.9982 25.843 36.6372 26.033 36.3302C26.223 36.0232 26.483 35.7862 26.816 35.6182C27.1741 35.4444 27.5681 35.3577 27.966 35.3652C28.406 35.3652 28.791 35.4472 29.123 35.6112C29.456 35.7752 29.713 36.0002 29.897 36.2852C30.082 36.5712 30.175 36.8972 30.175 37.2642C30.175 37.5092 30.128 37.7492 30.035 37.9862C29.94 38.2222 29.775 38.4842 29.539 38.7722C29.23 39.1392 28.9001 39.4881 28.551 39.8172L27.423 40.9652V41.0092H30.274V42.0002H25.787Z" fill="#323232"/>
<path d="M50.5179 35.3652C50.8299 35.3673 51.1392 35.4235 51.4319 35.5312C51.7299 35.6382 51.9989 35.8132 52.2379 36.0552C52.4759 36.2962 52.6659 36.6192 52.8069 37.0242C52.9469 37.4292 53.0169 37.9292 53.0169 38.5262C53.0256 39.0347 52.9654 39.542 52.8379 40.0342C52.7373 40.4361 52.5631 40.8159 52.3239 41.1542C52.1134 41.4472 51.836 41.6858 51.5149 41.8502C51.1999 42.0102 50.8449 42.0902 50.4509 42.0902C50.0702 42.0977 49.6931 42.0144 49.3509 41.8472C49.0409 41.6923 48.7748 41.4617 48.5773 41.1769C48.3798 40.892 48.2573 40.562 48.2209 40.2172H49.3869C49.4469 40.4772 49.5669 40.6832 49.7509 40.8372C49.9359 40.9872 50.1699 41.0642 50.4509 41.0642C50.9049 41.0642 51.2539 40.8662 51.4989 40.4722C51.7439 40.0782 51.8669 39.5302 51.8669 38.8292H51.8219C51.7186 39.0155 51.5809 39.1804 51.4159 39.3152C51.2469 39.451 51.0553 39.5559 50.8499 39.6252C50.6419 39.6982 50.4199 39.7342 50.1859 39.7342C49.8219 39.7396 49.4634 39.6444 49.1499 39.4592C48.8459 39.2764 48.5957 39.0162 48.4249 38.7052C48.2437 38.3687 48.1511 37.9915 48.1559 37.6092C48.1559 37.1822 48.2539 36.8002 48.4499 36.4612C48.6479 36.1212 48.9239 35.8512 49.2779 35.6562C49.6319 35.4582 50.0449 35.3602 50.5179 35.3652ZM50.5209 36.3242C50.3049 36.3234 50.0926 36.3808 49.9064 36.4905C49.7202 36.6001 49.567 36.7579 49.4629 36.9472C49.3589 37.1372 49.3069 37.3492 49.3069 37.5832C49.3089 37.8152 49.3609 38.0262 49.4629 38.2162C49.5679 38.4062 49.7089 38.5562 49.8879 38.6662C50.0699 38.7772 50.2759 38.8332 50.5079 38.8332C50.6714 38.8348 50.8335 38.8024 50.9838 38.738C51.1341 38.6736 51.2693 38.5787 51.3809 38.4592C51.4929 38.3415 51.5817 38.2038 51.6429 38.0532C51.7071 37.9015 51.7388 37.738 51.7359 37.5732C51.7359 37.3502 51.6829 37.1432 51.5759 36.9532C51.4741 36.7662 51.3257 36.6088 51.1449 36.4962C50.958 36.3797 50.7412 36.3199 50.5209 36.3242ZM56.3539 35.3652C56.6659 35.3673 56.9752 35.4235 57.2679 35.5312C57.5659 35.6382 57.8349 35.8132 58.0739 36.0552C58.3119 36.2962 58.5019 36.6192 58.6419 37.0242C58.7829 37.4292 58.8529 37.9292 58.8529 38.5262C58.8616 39.0347 58.8014 39.5419 58.6739 40.0342C58.5549 40.4762 58.3839 40.8482 58.1599 41.1542C57.9494 41.4472 57.672 41.6858 57.3509 41.8502C57.0359 42.0102 56.6809 42.0902 56.2869 42.0902C55.9062 42.0977 55.5291 42.0144 55.1869 41.8472C54.8769 41.6923 54.6108 41.4617 54.4133 41.1769C54.2158 40.892 54.0933 40.562 54.0569 40.2172H55.2229C55.2829 40.4772 55.4029 40.6832 55.5869 40.8372C55.7719 40.9872 56.0059 41.0642 56.2869 41.0642C56.7409 41.0642 57.0899 40.8662 57.3349 40.4722C57.5799 40.0782 57.7029 39.5302 57.7029 38.8292H57.6579C57.5546 39.0155 57.4169 39.1804 57.2519 39.3152C57.0829 39.451 56.8913 39.5559 56.6859 39.6252C56.4779 39.6982 56.2559 39.7342 56.0219 39.7342C55.6579 39.7396 55.2994 39.6444 54.9859 39.4592C54.6819 39.2764 54.4317 39.0162 54.2609 38.7052C54.0796 38.3687 53.987 37.9915 53.9919 37.6092C53.9919 37.1822 54.0899 36.8002 54.2859 36.4612C54.4839 36.1212 54.7599 35.8512 55.1139 35.6562C55.4679 35.4582 55.8809 35.3602 56.3539 35.3652ZM56.3569 36.3242C56.1409 36.3233 55.9285 36.3807 55.7423 36.4903C55.5561 36.6 55.4029 36.7578 55.2989 36.9472C55.1949 37.1372 55.1429 37.3492 55.1429 37.5832C55.1449 37.8152 55.1969 38.0262 55.2989 38.2162C55.4039 38.4062 55.5449 38.5562 55.7239 38.6662C55.9059 38.7772 56.1119 38.8332 56.3439 38.8332C56.5074 38.8348 56.6694 38.8023 56.8197 38.7379C56.97 38.6736 57.1053 38.5787 57.2169 38.4592C57.3289 38.3415 57.4177 38.2038 57.4789 38.0532C57.5431 37.9015 57.5748 37.738 57.5719 37.5732C57.5719 37.3502 57.5189 37.1432 57.4119 36.9532C57.3101 36.7663 57.1616 36.6088 56.9809 36.4962C56.794 36.3797 56.5772 36.32 56.3569 36.3242Z" fill="#323232"/>
<path d="M35.392 40.07C35.2994 40.0714 35.2074 40.0541 35.1217 40.0191C35.0359 39.984 34.9581 39.9319 34.893 39.866C34.826 39.8017 34.7732 39.7241 34.738 39.6382C34.7029 39.5522 34.6862 39.4598 34.689 39.367C34.6867 39.2753 34.7036 39.1841 34.7388 39.0993C34.7739 39.0146 34.8265 38.9381 34.893 38.875C34.9581 38.809 35.0358 38.7569 35.1216 38.7218C35.2074 38.6868 35.2994 38.6695 35.392 38.671C35.579 38.671 35.742 38.739 35.881 38.875C35.9949 38.9814 36.0682 39.1241 36.0884 39.2786C36.1087 39.4331 36.0746 39.5898 35.992 39.722C35.9297 39.8273 35.8421 39.9153 35.737 39.978C35.6326 40.0395 35.5133 40.0713 35.392 40.07ZM38.002 40.07C37.9094 40.0714 37.8174 40.0541 37.7317 40.0191C37.6459 39.984 37.5681 39.9319 37.503 39.866C37.4359 39.8018 37.3831 39.7242 37.3479 39.6382C37.3128 39.5522 37.2961 39.4598 37.299 39.367C37.2967 39.2753 37.3136 39.1841 37.3488 39.0993C37.3839 39.0146 37.4365 38.9381 37.503 38.875C37.5681 38.809 37.6458 38.7569 37.7316 38.7218C37.8174 38.6868 37.9094 38.6695 38.002 38.671C38.19 38.671 38.352 38.739 38.491 38.875C38.605 38.9813 38.6785 39.1239 38.699 39.2784C38.7194 39.4329 38.6855 39.5897 38.603 39.722C38.5404 39.8274 38.4524 39.9154 38.347 39.978C38.2426 40.0395 38.1233 40.0713 38.002 40.07ZM40.612 40.07C40.5196 40.0713 40.4278 40.0539 40.3422 40.0189C40.2566 39.9838 40.179 39.9318 40.114 39.866C40.0468 39.8018 39.9938 39.7242 39.9585 39.6383C39.9232 39.5523 39.9063 39.4599 39.909 39.367C39.9068 39.2752 39.9239 39.184 39.9592 39.0992C39.9945 39.0144 40.0473 38.938 40.114 38.875C40.179 38.8091 40.2566 38.7571 40.3422 38.722C40.4277 38.687 40.5196 38.6696 40.612 38.671C40.8 38.671 40.962 38.739 41.102 38.875C41.2159 38.9814 41.2892 39.1241 41.3094 39.2786C41.3297 39.4331 41.2956 39.5898 41.213 39.722C41.1504 39.8274 41.0624 39.9154 40.957 39.978C40.8526 40.0395 40.7333 40.0713 40.612 40.07Z" fill="#989898"/>
</svg>
