<svg width="75" height="75" viewBox="0 0 75 75" fill="none" xmlns="http://www.w3.org/2000/svg">
<rect width="75" height="75" rx="4" fill="#EEEEEE"/>
<path d="M55.5 32H20.5C19.1193 32 18 33.1193 18 34.5C18 35.8807 19.1193 37 20.5 37H55.5C56.8807 37 58 35.8807 58 34.5C58 33.1193 56.8807 32 55.5 32Z" fill="#989898"/>
<path d="M18 34.5C18 33.837 18.2634 33.2011 18.7322 32.7322C19.2011 32.2634 19.837 32 20.5 32H30.5C31.163 32 31.7989 32.2634 32.2678 32.7322C32.7366 33.2011 33 33.837 33 34.5C33 35.163 32.7366 35.7989 32.2678 36.2678C31.7989 36.7366 31.163 37 30.5 37H20.5C19.837 37 19.2011 36.7366 18.7322 36.2678C18.2634 35.7989 18 35.163 18 34.5Z" fill="#F4BC09"/>
<path d="M43.605 48.08C44.849 48.08 45.755 47.367 45.753 46.383C45.756 45.656 45.301 45.133 44.486 45.017V44.972C45.116 44.835 45.54 44.366 45.536 43.713C45.54 42.827 44.784 42.103 43.622 42.103C42.492 42.103 41.616 42.776 41.594 43.75H42.608C42.625 43.261 43.079 42.957 43.616 42.957C44.159 42.957 44.52 43.287 44.517 43.776C44.52 44.284 44.099 44.622 43.497 44.622H42.983V45.435H43.497C44.233 45.435 44.671 45.804 44.667 46.33C44.67 46.844 44.224 47.196 43.602 47.196C43.017 47.196 42.565 46.892 42.54 46.418H41.472C41.5 47.401 42.378 48.08 43.605 48.08ZM48.879 48.11C50.282 48.114 51.12 47.006 51.12 45.097C51.12 43.199 50.276 42.102 48.879 42.102C47.481 42.102 46.639 43.196 46.637 45.097C46.637 47.003 47.475 48.11 48.879 48.11ZM48.879 47.222C48.154 47.222 47.699 46.494 47.702 45.097C47.705 43.71 48.157 42.98 48.879 42.98C49.603 42.98 50.055 43.71 50.057 45.097C50.057 46.494 49.606 47.222 48.879 47.222ZM55.175 46.909C55.178 47.585 55.606 48.162 56.405 48.162C57.2 48.162 57.638 47.585 57.635 46.909V46.602C57.638 45.921 57.212 45.349 56.405 45.349C55.618 45.349 55.178 45.926 55.175 46.602V46.909ZM52.217 43.579C52.22 44.256 52.649 44.827 53.45 44.827C54.243 44.827 54.68 44.261 54.678 43.579V43.273C54.68 42.591 54.254 42.02 53.45 42.02C52.666 42.02 52.22 42.59 52.217 43.273V43.579ZM52.473 48H53.186L57.186 42.182H56.473L52.473 48ZM55.916 46.602C55.919 46.302 56.046 45.997 56.405 45.997C56.78 45.997 56.891 46.301 56.888 46.602V46.909C56.891 47.21 56.768 47.509 56.405 47.509C56.041 47.509 55.919 47.207 55.916 46.909V46.602ZM52.965 43.272C52.967 42.974 53.089 42.668 53.45 42.668C53.825 42.668 53.933 42.972 53.93 43.273V43.579C53.933 43.881 53.814 44.179 53.45 44.179C53.087 44.179 52.967 43.881 52.964 43.579V43.273L52.965 43.272Z" fill="#989898"/>
</svg>
