<svg width="75" height="75" viewBox="0 0 75 75" fill="none" xmlns="http://www.w3.org/2000/svg">
<rect width="75" height="75" rx="4" fill="#EEEEEE"/>
<path d="M38 54C46.8366 54 54 46.8366 54 38C54 29.1634 46.8366 22 38 22C29.1634 22 22 29.1634 22 38C22 46.8366 29.1634 54 38 54Z" stroke="#989898" stroke-width="4"/>
<path d="M54 38C54 40.454 53.467 42.875 52.443 45.077C51.4376 47.2543 49.9509 49.175 48.095 50.694C46.2822 52.1766 44.1414 53.2048 41.851 53.693C39.581 54.171 37.236 54.09 35 53.455" stroke="#F4BC09" stroke-width="4" stroke-linecap="round"/>
<path d="M32.605 41.08C33.849 41.08 34.755 40.367 34.753 39.384C34.756 38.656 34.301 38.134 33.486 38.017V37.972C34.116 37.835 34.54 37.366 34.536 36.713C34.54 35.827 33.784 35.103 32.622 35.103C31.492 35.103 30.616 35.776 30.594 36.75H31.608C31.625 36.261 32.079 35.957 32.616 35.957C33.159 35.957 33.52 36.287 33.517 36.776C33.52 37.284 33.099 37.622 32.497 37.622H31.983V38.435H32.497C33.233 38.435 33.671 38.804 33.667 39.33C33.67 39.844 33.224 40.196 32.602 40.196C32.017 40.196 31.565 39.892 31.54 39.418H30.472C30.5 40.401 31.378 41.08 32.605 41.08ZM37.879 41.11C39.282 41.114 40.12 40.006 40.12 38.097C40.12 36.199 39.276 35.102 37.879 35.102C36.481 35.102 35.639 36.196 35.637 38.097C35.637 40.003 36.475 41.11 37.879 41.11ZM37.879 40.222C37.154 40.222 36.699 39.494 36.702 38.097C36.705 36.71 37.157 35.98 37.879 35.98C38.603 35.98 39.055 36.71 39.057 38.097C39.057 39.494 38.606 40.222 37.879 40.222ZM44.175 39.909C44.178 40.585 44.606 41.162 45.405 41.162C46.2 41.162 46.638 40.585 46.635 39.909V39.602C46.638 38.921 46.212 38.349 45.405 38.349C44.618 38.349 44.178 38.926 44.175 39.602V39.909ZM41.217 36.579C41.22 37.256 41.649 37.827 42.45 37.827C43.243 37.827 43.68 37.261 43.678 36.579V36.273C43.68 35.591 43.254 35.02 42.45 35.02C41.666 35.02 41.22 35.59 41.217 36.273V36.579ZM41.473 41H42.186L46.186 35.182H45.473L41.473 41ZM44.916 39.602C44.919 39.302 45.046 38.997 45.405 38.997C45.78 38.997 45.891 39.301 45.888 39.602V39.909C45.891 40.21 45.768 40.509 45.405 40.509C45.041 40.509 44.919 40.207 44.916 39.909V39.602ZM41.965 36.272C41.967 35.974 42.09 35.668 42.45 35.668C42.825 35.668 42.933 35.972 42.93 36.273V36.579C42.933 36.881 42.814 37.179 42.45 37.179C42.087 37.179 41.967 36.881 41.965 36.579V36.273V36.272Z" fill="#323232"/>
</svg>
