<svg width="75" height="75" viewBox="0 0 75 75" fill="none" xmlns="http://www.w3.org/2000/svg">
<rect width="75" height="75" rx="4" fill="#EEEEEE"/>
<path d="M21.854 31.8998C22.064 31.2828 22.936 31.2828 23.146 31.8998L24.27 35.2088H27.823C28.491 35.2088 28.761 36.0688 28.212 36.4508L25.365 38.4278L26.469 41.6758C26.681 42.2978 25.975 42.8298 25.434 42.4558L22.5 40.4158L19.566 42.4538C19.026 42.8288 18.32 42.2968 18.531 41.6738L19.635 38.4268L16.788 36.4498C16.24 36.0688 16.509 35.2078 17.178 35.2078H20.729L21.854 31.8978V31.8998Z" fill="#F4BC09"/>
<path d="M38.218 31.8998C38.428 31.2828 39.3 31.2828 39.509 31.8998L40.634 35.2088H44.187C44.855 35.2088 45.124 36.0688 44.576 36.4508L41.728 38.4278L42.832 41.6758C43.044 42.2978 42.338 42.8298 41.798 42.4558L38.864 40.4168L35.929 42.4548C35.389 42.8298 34.683 42.2978 34.895 41.6748L35.999 38.4278L33.152 36.4508C32.603 36.0698 32.872 35.2088 33.541 35.2088H37.093L38.218 31.8998Z" fill="#989898"/>
<path d="M53.215 31.9959C53.419 31.3679 54.308 31.3679 54.512 31.9959L55.394 34.7109C55.4386 34.8479 55.5254 34.9673 55.642 35.0519C55.7586 35.1365 55.899 35.182 56.043 35.1819H58.898C59.558 35.1819 59.833 36.0279 59.298 36.4159L56.988 38.0939C56.8717 38.1786 56.7852 38.298 56.7409 38.4348C56.6965 38.5717 56.6965 38.7191 56.741 38.8559L57.624 41.5719C57.828 42.1999 57.109 42.7219 56.574 42.3339L54.264 40.6559C54.1476 40.5714 54.0074 40.5259 53.8635 40.5259C53.7196 40.5259 53.5795 40.5714 53.463 40.6559L51.153 42.3339C50.619 42.7219 49.9 42.1999 50.103 41.5719L50.986 38.8559C51.0304 38.719 51.0303 38.5715 50.9857 38.4346C50.9412 38.2978 50.8545 38.1785 50.738 38.0939L48.428 36.4159C47.894 36.0279 48.168 35.1819 48.829 35.1819H51.684C51.98 35.1819 52.242 34.9919 52.333 34.7119L53.215 31.9959Z" fill="#989898"/>
<path fill-rule="evenodd" clip-rule="evenodd" d="M39 31.4511C38.654 31.2351 38.134 31.3571 37.985 31.8191L36.949 35.0051H33.6C32.939 35.0051 32.664 35.8511 33.199 36.2391L35.909 38.2091L34.874 41.3951C34.67 42.0231 35.389 42.5451 35.924 42.1571L38.634 40.1871L39.001 40.4541L39 31.4511Z" fill="#F4BC09"/>
</svg>
