<svg width="75" height="75" viewBox="0 0 75 75" fill="none" xmlns="http://www.w3.org/2000/svg">
<rect width="75" height="75" rx="4" fill="#EEEEEE"/>
<path d="M56.5 36H25.5C24.6716 36 24 36.6716 24 37.5C24 38.3284 24.6716 39 25.5 39H56.5C57.3284 39 58 38.3284 58 37.5C58 36.6716 57.3284 36 56.5 36Z" fill="#989898"/>
<path d="M46.5 36H20.5C19.6716 36 19 36.6716 19 37.5C19 38.3284 19.6716 39 20.5 39H46.5C47.3284 39 48 38.3284 48 37.5C48 36.6716 47.3284 36 46.5 36Z" fill="#F4BC09"/>
<path d="M45.399 41.298C47.5524 41.298 49.298 39.5524 49.298 37.399C49.298 35.2456 47.5524 33.5 45.399 33.5C43.2456 33.5 41.5 35.2456 41.5 37.399C41.5 39.5524 43.2456 41.298 45.399 41.298Z" fill="white" stroke="#989898"/>
</svg>
