<svg width="75" height="75" viewBox="0 0 75 75" fill="none" xmlns="http://www.w3.org/2000/svg">
<rect width="75" height="75" rx="4" fill="#EEEEEE"/>
<path opacity="0.75" d="M14.8 31.9998C14.8 31.1511 15.1372 30.3372 15.7373 29.7371C16.3374 29.1369 17.1514 28.7998 18 28.7998H58C58.8487 28.7998 59.6627 29.1369 60.2628 29.7371C60.8629 30.3372 61.2001 31.1511 61.2001 31.9998V44.9998C61.2001 45.8485 60.8629 46.6624 60.2628 47.2625C59.6627 47.8627 58.8487 48.1998 58 48.1998H18C17.1514 48.1998 16.3374 47.8627 15.7373 47.2625C15.1372 46.6624 14.8 45.8485 14.8 44.9998V31.9998Z" fill="#989898" stroke="#989898" stroke-width="1.6"/>
<path d="M36.9561 33C36.9561 32.2044 37.2721 31.4413 37.8347 30.8787C38.3973 30.3161 39.1604 30 39.9561 30H56.9131C57.7087 30 58.4718 30.3161 59.0344 30.8787C59.597 31.4413 59.9131 32.2044 59.9131 33V44C59.9131 44.7956 59.597 45.5587 59.0344 46.1213C58.4718 46.6839 57.7087 47 56.9131 47H39.9571C39.1614 47 38.3983 46.6839 37.8357 46.1213C37.2731 45.5587 36.9571 44.7956 36.9571 44V33H36.9561Z" fill="white" stroke="#989898"/>
<path d="M27.1339 35.4541H26.1719L24.5389 36.5221V37.4681L26.1049 36.4451H26.1429V42.0001H27.1339V35.4541Z" fill="#323232"/>
<path d="M46.826 42.0002H51.135V41.1532H48.188V41.1052L49.488 39.7442C50.688 38.5322 51.029 37.9542 51.029 37.2222C51.029 36.1702 50.173 35.3652 48.939 35.3652C47.715 35.3652 46.819 36.1582 46.819 37.3532H47.763C47.76 36.6502 48.213 36.1902 48.92 36.1902C49.584 36.1902 50.09 36.5992 50.09 37.2502C50.09 37.8302 49.744 38.2452 49.041 38.9902L46.826 41.2842V42.0002Z" fill="#323232"/>
</svg>
