<svg width="75" height="75" viewBox="0 0 75 75" fill="none" xmlns="http://www.w3.org/2000/svg">
<rect width="75" height="75" rx="4"  />
<g clip-path="url(#clip0_24_365)">
<path d="M14.4648 24.1558C15.2738 24.1558 15.9297 23.4999 15.9297 22.6909V15.9297H22.6909C23.4999 15.9297 24.1558 15.2738 24.1558 14.4648C24.1558 13.6559 23.4999 13 22.6909 13H14.4648C13.6559 13 13 13.6559 13 14.4648V22.6909C13 23.5 13.6559 24.1558 14.4648 24.1558Z" fill="#baff39"/>
<path d="M61.5352 13H53.3091C52.5001 13 51.8442 13.6559 51.8442 14.4648C51.8442 15.2738 52.5001 15.9297 53.3091 15.9297H60.0703V22.6909C60.0703 23.4999 60.7262 24.1558 61.5352 24.1558C62.3441 24.1558 63 23.4999 63 22.6909V14.4648C63 13.6559 62.3441 13 61.5352 13Z" fill="#baff39"/>
<path d="M61.5352 51.8442C60.7262 51.8442 60.0703 52.5001 60.0703 53.3091V60.0703H53.3091C52.5001 60.0703 51.8442 60.7262 51.8442 61.5352C51.8442 62.3441 52.5001 63 53.3091 63H61.5352C62.3441 63 63 62.3441 63 61.5352V53.3091C63 52.5 62.3441 51.8442 61.5352 51.8442Z" fill="#baff39"/>
<path d="M22.6909 60.0703H15.9297V53.3091C15.9297 52.5001 15.2738 51.8442 14.4648 51.8442C13.6559 51.8442 13 52.5001 13 53.3091V61.5352C13 62.3441 13.6559 63 14.4648 63H22.6909C23.4999 63 24.1558 62.3441 24.1558 61.5352C24.1558 60.7262 23.5 60.0703 22.6909 60.0703Z" fill="#baff39"/>
<path d="M53.9824 31.6895V22.4385C53.9824 21.9795 53.6104 21.6074 53.1504 21.6074H38H22.8496C22.3896 21.6074 22.0176 21.9795 22.0176 22.4385V31.6895C22.0176 32.1494 22.3896 32.5215 22.8496 32.5215H27.2676C27.7266 32.5215 28.0986 32.1494 28.0986 31.6895V28.5205C28.0986 28.0605 28.4717 27.6885 28.9307 27.6885H34.127C34.5869 27.6885 34.959 28.0605 34.959 28.5205V51.3857C34.959 51.8457 34.5869 52.2178 34.127 52.2178H31.8545C31.3945 52.2178 31.0225 52.5898 31.0225 53.0498V57.4678C31.0225 57.9268 31.3945 58.2988 31.8545 58.2988H38H44.1455C44.6055 58.2988 44.9775 57.9268 44.9775 57.4678V53.0498C44.9775 52.5898 44.6055 52.2178 44.1455 52.2178H41.873C41.4131 52.2178 41.041 51.8457 41.041 51.3857V28.5205C41.041 28.0605 41.4131 27.6885 41.873 27.6885H47.0693C47.5283 27.6885 47.9014 28.0605 47.9014 28.5205V31.6895C47.9014 32.1494 48.2734 32.5215 48.7324 32.5215H53.1504C53.6104 32.5215 53.9824 32.1494 53.9824 31.6895Z" fill="#baff39"/>
</g>
<defs>
<clipPath id="clip0_24_365">
<rect width="50" height="50" fill="white" transform="translate(13 13)"/>
</clipPath>
</defs>
</svg>
