<svg width="75" height="75" viewBox="0 0 75 75" fill="none" xmlns="http://www.w3.org/2000/svg">
<rect width="75" height="75" rx="4" />
<g  clip-path="url(#clip0_24_396)">
<path d="M38 13C24.193 13 13 24.193 13 38C13 51.807 24.193 63 38 63C51.808 63 63 51.807 63 38C63 24.193 51.808 13 38 13ZM38 58C26.972 58 18 49.028 18 38C18 26.972 26.972 18 38 18C49.028 18 58 26.972 58 38C58 49.028 49.028 58 38 58Z" fill="#baff39"/>
<path d="M47.093 36.2499L34.9689 29.2499C33.302 28.2879 31.938 29.0749 31.938 30.9999V44.9999C31.938 46.9249 33.302 47.7129 34.9689 46.7499L47.093 39.7499C48.76 38.7879 48.76 37.2119 47.093 36.2499Z" fill="#baff39"/>
</g>
<defs>
<clipPath id="clip0_24_396">
<rect width="50" height="50" fill="white" transform="translate(13 13)"/>
</clipPath>
</defs>
</svg>
