<svg width="423" height="134" viewBox="0 0 423 134" fill="none" xmlns="http://www.w3.org/2000/svg">
<g clip-path="url(#clip0_25_442)">
<path d="M119.079 49.4363H118.273C117.243 49.4539 116.22 49.2617 115.267 48.8715C114.313 48.4812 113.449 47.901 112.727 47.1663C111.985 46.4339 111.395 45.5622 110.991 44.6012C110.586 43.6402 110.376 42.6089 110.371 41.5663V33.6992L110.39 29.5732H113.763L113.757 30.3862C113.75 31.3142 113.744 32.1333 113.742 32.8663H118.384V35.9843H113.742C113.742 36.8923 113.742 37.7983 113.735 38.6843C113.735 39.7923 113.728 40.6552 113.728 41.2512V41.5353C113.729 42.1383 113.849 42.7352 114.083 43.291C114.317 43.8468 114.659 44.3504 115.09 44.7723C115.504 45.1966 116.001 45.531 116.55 45.7546C117.099 45.9783 117.688 46.0864 118.281 46.0723H119.087L119.081 49.4432L119.079 49.4363ZM111.979 41.5363C111.979 42.3717 112.145 43.1989 112.468 43.9694C112.791 44.7398 113.265 45.4381 113.861 46.0233C114.819 47.0116 116.093 47.633 117.461 47.7793V47.6343C116.126 47.4818 114.883 46.8757 113.94 45.9172C113.363 45.3491 112.904 44.6728 112.588 43.9269C112.273 43.181 112.108 42.3802 112.102 41.5703V41.2533C112.102 40.6533 112.102 39.7893 112.109 38.6863C112.109 37.5393 112.116 36.3623 112.116 35.1863V33.6732C112.116 32.9452 112.116 32.1322 112.125 31.1882H111.986L111.975 33.7683V41.5383L111.979 41.5363Z" fill="#262626"/>
<path d="M128.973 32.9002C130.89 32.8961 132.748 33.557 134.232 34.77C135.716 35.9831 136.733 37.6732 137.109 39.5523C137.486 41.4313 137.199 43.3828 136.298 45.0741C135.397 46.7654 133.937 48.0917 132.167 48.8268C130.397 49.5619 128.427 49.6604 126.593 49.1054C124.759 48.5503 123.174 47.376 122.108 45.783C121.043 44.1899 120.563 42.2766 120.751 40.3694C120.938 38.4622 121.782 36.6791 123.137 35.3242C123.895 34.5455 124.803 33.9289 125.806 33.5119C126.809 33.0948 127.887 32.886 128.973 32.8982V32.9002ZM128.973 47.8262C130.519 47.831 132.018 47.2994 133.216 46.322C134.413 45.3447 135.235 43.9822 135.54 42.4669C135.845 40.9516 135.615 39.3774 134.888 38.0128C134.162 36.6483 132.986 35.5779 131.558 34.9843C130.131 34.3906 128.542 34.3106 127.063 34.7577C125.583 35.2048 124.304 36.1513 123.445 37.4359C122.585 38.7205 122.198 40.2636 122.349 41.8019C122.5 43.3402 123.18 44.7784 124.273 45.8712C124.88 46.5019 125.609 47.0008 126.417 47.3372C127.224 47.6735 128.093 47.84 128.967 47.8262H128.973ZM128.973 34.6563C130.482 34.6561 131.945 35.1794 133.112 36.1369C134.278 37.0943 135.077 38.4268 135.371 39.907C135.665 41.3872 135.437 42.9236 134.725 44.2544C134.013 45.5852 132.862 46.6279 131.467 47.2048C130.073 47.7818 128.521 47.8572 127.077 47.4184C125.633 46.9795 124.386 46.0534 123.548 44.798C122.711 43.5426 122.335 42.0356 122.484 40.5338C122.633 39.032 123.298 37.6284 124.366 36.5623C124.965 35.9494 125.682 35.4649 126.474 35.1382C127.266 34.8115 128.117 34.6496 128.973 34.6622V34.6563ZM128.973 46.0723C130.109 46.0725 131.21 45.6788 132.088 44.9584C132.965 44.238 133.566 43.2355 133.788 42.1216C134.009 41.0077 133.838 39.8515 133.302 38.85C132.767 37.8485 131.901 37.0636 130.851 36.6293C129.802 36.195 128.634 36.1381 127.548 36.4682C126.461 36.7982 125.523 37.4949 124.892 38.4395C124.262 39.3841 123.978 40.5182 124.09 41.6483C124.202 42.7785 124.703 43.8348 125.506 44.6372C125.955 45.1017 126.494 45.4688 127.09 45.7157C127.687 45.9626 128.328 46.084 128.973 46.0723Z" fill="#262626"/>
<path d="M147.359 32.9001H148.165V36.2501H147.359C146.72 36.2351 146.085 36.3522 145.494 36.594C144.902 36.8357 144.367 37.197 143.921 37.6551C143.455 38.1112 143.085 38.6558 142.832 39.2568C142.58 39.8578 142.449 40.5031 142.449 41.1551V49.4361H139.099V41.1241C139.105 40.0352 139.325 38.9581 139.748 37.9547C140.171 36.9513 140.788 36.0413 141.564 35.2771C142.318 34.5084 143.221 33.9012 144.217 33.492C145.213 33.0829 146.282 32.8805 147.359 32.8972V32.9001ZM146.553 34.6842V34.5561C145.089 34.7039 143.724 35.3654 142.701 36.4232C142.079 37.0334 141.584 37.7598 141.242 38.5611C140.904 39.387 140.723 40.2688 140.709 41.1611V47.8302H140.837V41.1301C140.842 40.271 141.016 39.4214 141.35 38.6297C141.683 37.8381 142.17 37.1202 142.782 36.5172C143.789 35.4891 145.121 34.8422 146.552 34.6871L146.553 34.6842Z" fill="#262626"/>
<path d="M158.277 32.9001H159.083V36.2501H158.277C157.638 36.2353 157.004 36.3525 156.412 36.5942C155.821 36.836 155.286 37.1971 154.84 37.6551C154.374 38.1112 154.004 38.6558 153.751 39.2568C153.499 39.8578 153.368 40.5031 153.368 41.1551V49.4361H150.018V41.1241C150.024 40.0352 150.244 38.9582 150.667 37.9548C151.09 36.9514 151.708 36.0414 152.483 35.2771C153.237 34.5084 154.14 33.9012 155.136 33.492C156.132 33.0829 157.201 32.8805 158.278 32.8972L158.277 32.9001ZM157.472 34.6842V34.5561C156.008 34.704 154.643 35.3654 153.62 36.4232C152.998 37.0334 152.503 37.7598 152.161 38.5611C151.823 39.387 151.642 40.2688 151.628 41.1611V47.8302H151.756V41.1301C151.761 40.271 151.935 39.4214 152.269 38.6297C152.602 37.8381 153.089 37.1202 153.701 36.5172C154.708 35.4891 156.04 34.8422 157.471 34.6871L157.472 34.6842Z" fill="#262626"/>
<path d="M159.151 32.9004H162.919L168.902 44.5374L171.811 38.8634H171.831L174.912 32.8994H178.682L170.764 48.2993C170.723 48.3815 170.676 48.4604 170.623 48.5354L166.545 56.4744L163.545 54.9524L167.012 48.2294L159.151 32.9023V32.9004ZM161.935 34.5134H161.79L168.48 47.5533C168.5 47.5891 168.524 47.6226 168.552 47.6533L168.903 48.0593L161.935 34.5134ZM176.035 34.5134H175.89L172.809 40.4774H172.794L168.902 48.0674L165.717 54.2444L165.832 54.3033L169.244 47.6633L169.292 47.6024C169.292 47.6024 169.305 47.5833 169.311 47.5743V47.5634L176.035 34.5134Z" fill="#262626"/>
<path d="M144.345 96.651C144.345 97.0951 144.319 97.539 144.267 97.9801V115.406H139.895V108.729C137.05 112.072 133.12 114.306 128.793 115.041C124.466 115.776 120.018 114.964 116.23 112.747C112.441 110.531 109.554 107.052 108.074 102.92C106.594 98.7879 106.616 94.2668 108.136 90.1493C109.656 86.0318 112.577 82.5806 116.386 80.4011C120.196 78.2216 124.652 77.4528 128.971 78.2295C133.291 79.0061 137.2 81.2787 140.012 84.6487C142.824 88.0186 144.359 92.271 144.35 96.66M125.556 110.99C128.881 110.988 132.102 109.834 134.671 107.723C137.24 105.613 138.998 102.677 139.645 99.4154C140.291 96.1541 139.787 92.7695 138.218 89.8382C136.649 86.907 134.112 84.6105 131.039 83.3402C127.967 82.0699 124.549 81.9044 121.368 82.8718C118.187 83.8392 115.44 85.8798 113.595 88.6457C111.75 91.4116 110.921 94.7317 111.25 98.0403C111.578 101.349 113.044 104.441 115.397 106.79C116.714 108.146 118.295 109.218 120.042 109.94C121.789 110.663 123.666 111.02 125.556 110.99Z" fill="#262626"/>
<path d="M168.963 82.2331C167.09 82.1975 165.23 82.5447 163.497 83.2537C161.763 83.9627 160.193 85.0184 158.882 86.356C157.525 87.6902 156.447 89.2801 155.709 91.0339C154.971 92.7876 154.588 94.6703 154.582 96.5731V115.406H150.205V96.569C150.212 94.0876 150.711 91.6323 151.674 89.3452C152.637 87.058 154.044 84.9846 155.813 83.2451C157.522 81.4978 159.569 80.1182 161.831 79.191C164.092 78.2638 166.519 77.8085 168.962 77.8531L168.963 82.2331Z" fill="#262626"/>
<path d="M182.208 96.609H182.052L200.412 115.364H194.942L177.28 97.312V115.403H172.866V59.4131H177.28V96.0641L195.14 77.821H200.61L182.21 96.609H182.208Z" fill="#262626"/>
<path d="M215.42 115.286C212.35 114.963 209.407 113.887 206.852 112.154C204.297 110.422 202.209 108.085 200.774 105.352C199.338 102.619 198.599 99.5742 198.622 96.4872C198.644 93.4002 199.429 90.3665 200.905 87.6551C202.381 84.9438 204.503 82.6385 207.083 80.9437C209.664 79.2489 212.622 78.217 215.697 77.9393C218.771 77.6617 221.867 78.1469 224.709 79.352C227.551 80.5572 230.052 82.4451 231.99 84.8481L233.275 86.4111L209.636 108.721C211.5 109.94 213.632 110.689 215.849 110.904C218.405 111.184 220.989 110.774 223.332 109.716C225.676 108.658 227.693 106.991 229.173 104.888L232.773 107.388C228.578 112.728 223.446 115.398 217.379 115.397C216.726 115.397 216.073 115.358 215.425 115.28M207.885 85.8391C205.188 88.2243 203.486 91.5365 203.118 95.1182C202.903 96.9934 203.064 98.8928 203.593 100.705C204.122 102.517 205.008 104.204 206.199 105.669C206.246 105.715 206.285 105.767 206.316 105.825L227.216 86.0922C224.919 83.9784 222 82.6632 218.895 82.3422C218.391 82.2643 217.881 82.2251 217.371 82.2251C213.86 82.1806 210.464 83.4725 207.871 85.8391" fill="#262626"/>
<path d="M239.489 97.5872C239.496 99.3659 239.855 101.126 240.546 102.765C241.236 104.404 242.244 105.891 243.511 107.139C244.742 108.391 246.215 109.379 247.841 110.041C249.467 110.703 251.211 111.027 252.966 110.991V115.407C250.64 115.452 248.329 115.021 246.175 114.141C244.022 113.261 242.071 111.95 240.442 110.288C238.758 108.628 237.42 106.651 236.505 104.472C235.59 102.292 235.115 99.9523 235.109 97.5881V77.8552L235.148 69.4932H239.562C239.536 72.6452 239.523 75.4066 239.523 77.7772H251.213V81.5671H239.53C239.53 84.6411 239.524 87.5782 239.511 90.3782C239.498 93.1782 239.492 95.3339 239.492 96.8452V97.5881L239.489 97.5872Z" fill="#262626"/>
<path d="M275.629 77.8562C278.78 77.8529 281.881 78.6437 284.646 80.1555C287.411 81.6674 289.751 83.8515 291.448 86.5062C293.146 89.161 294.148 92.2007 294.361 95.3447C294.574 98.4888 293.991 101.636 292.666 104.495C291.341 107.354 289.318 109.834 286.782 111.704C284.246 113.575 281.279 114.776 278.156 115.198C275.033 115.619 271.855 115.247 268.914 114.115C265.973 112.984 263.364 111.129 261.329 108.723V133.847H256.913V97.4321C256.887 97.1461 256.874 96.8712 256.874 96.6122C256.879 91.6397 258.857 86.8723 262.373 83.3562C265.889 79.8401 270.657 77.8615 275.629 77.8562ZM275.629 110.99C278.469 110.988 281.245 110.143 283.606 108.563C285.967 106.984 287.806 104.74 288.892 102.115C289.978 99.4905 290.261 96.6029 289.706 93.8171C289.152 91.0314 287.784 88.4727 285.775 86.4642C283.767 84.4558 281.208 83.0876 278.422 82.5328C275.636 81.9781 272.749 82.2615 270.124 83.3473C267.499 84.4331 265.255 86.2725 263.676 88.6332C262.096 90.9938 261.252 93.7698 261.249 96.6102C261.249 96.7161 261.262 96.8216 261.288 96.9242V97.1192H261.327V97.7062C261.606 101.338 263.245 104.731 265.917 107.206C268.528 109.7 272.017 111.062 275.627 110.996" fill="#FB8500"/>
<path d="M302.668 59.3352H298.291V115.325H302.668V59.3352Z" fill="#262626"/>
<path d="M346.07 96.651C346.07 97.0951 346.044 97.539 345.992 97.9801V115.406H341.617V108.729C338.773 112.072 334.842 114.306 330.515 115.041C326.188 115.776 321.74 114.964 317.952 112.747C314.164 110.531 311.276 107.052 309.796 102.92C308.316 98.7879 308.338 94.2668 309.858 90.1493C311.378 86.0318 314.299 82.5806 318.109 80.4011C321.918 78.2216 326.374 77.4528 330.693 78.2295C335.013 79.0061 338.922 81.2787 341.734 84.6487C344.546 88.0186 346.082 92.271 346.072 96.66M327.278 110.999C330.603 110.997 333.824 109.843 336.393 107.732C338.962 105.622 340.72 102.686 341.367 99.4244C342.014 96.1631 341.509 92.7784 339.94 89.8471C338.371 86.9159 335.834 84.6195 332.762 83.3492C329.689 82.0789 326.271 81.9134 323.09 82.8808C319.909 83.8483 317.162 85.8888 315.317 88.6548C313.472 91.4207 312.643 94.7407 312.972 98.0493C313.3 101.358 314.766 104.45 317.119 106.799C318.437 108.155 320.017 109.227 321.764 109.949C323.512 110.671 325.388 111.029 327.278 110.999Z" fill="#262626"/>
<path d="M369.324 115.287C366.256 114.958 363.317 113.877 360.766 112.141C358.215 110.405 356.132 108.066 354.701 105.332C353.27 102.599 352.536 99.5544 352.562 96.469C352.589 93.3835 353.376 90.3522 354.853 87.6435C356.331 84.9349 358.454 82.6325 361.034 80.9402C363.614 79.2479 366.572 78.218 369.645 77.9416C372.718 77.6653 375.812 78.1511 378.653 79.3559C381.493 80.5608 383.993 82.4476 385.93 84.8492L382.492 87.5831C380.083 84.6583 376.616 82.803 372.846 82.4206C369.076 82.0382 365.307 83.1597 362.36 85.5412C359.412 87.9227 357.524 91.3717 357.106 95.1379C356.688 98.9042 357.774 102.683 360.127 105.653C360.133 105.659 360.138 105.665 360.142 105.672C361.318 107.147 362.778 108.37 364.436 109.27C366.093 110.169 367.915 110.726 369.792 110.908C372.343 111.186 374.921 110.774 377.258 109.716C379.594 108.657 381.604 106.991 383.077 104.89L386.677 107.39C382.51 112.73 377.392 115.4 371.323 115.399C370.657 115.399 369.992 115.36 369.331 115.282" fill="#262626"/>
<path d="M404.646 115.286C401.576 114.963 398.633 113.887 396.078 112.154C393.523 110.422 391.435 108.085 390 105.352C388.564 102.619 387.825 99.5742 387.848 96.4872C387.871 93.4002 388.655 90.3665 390.131 87.6551C391.607 84.9438 393.729 82.6385 396.309 80.9437C398.89 79.2489 401.848 78.217 404.923 77.9393C407.997 77.6617 411.093 78.1469 413.935 79.352C416.777 80.5572 419.278 82.4451 421.216 84.8481L422.5 86.4111L398.861 108.721C400.725 109.94 402.857 110.689 405.074 110.904C407.63 111.184 410.214 110.774 412.558 109.716C414.901 108.658 416.918 106.991 418.398 104.888L421.998 107.388C417.803 112.728 412.672 115.398 406.605 115.397C405.952 115.397 405.299 115.358 404.65 115.28M397.11 85.8391C394.413 88.2243 392.711 91.5365 392.343 95.1182C392.128 96.9934 392.289 98.8928 392.818 100.705C393.347 102.517 394.233 104.204 395.424 105.669C395.471 105.715 395.51 105.768 395.541 105.825L416.441 86.0922C414.144 83.9783 411.225 82.663 408.12 82.3422C407.616 82.2643 407.106 82.2251 406.596 82.2251C403.085 82.1806 399.689 83.4725 397.096 85.8391" fill="#262626"/>
<path d="M73.2058 22.6831V49.6522H65.7998V22.6831C65.7998 18.631 64.1901 14.7449 61.3248 11.8796C58.4596 9.01436 54.5734 7.40466 50.5213 7.40466C46.4692 7.40466 42.5831 9.01436 39.7178 11.8796C36.8525 14.7449 35.2428 18.631 35.2428 22.6831V49.6522H27.8428V22.6831C27.8229 19.6917 28.395 16.7261 29.526 13.9567C30.657 11.1873 32.3246 8.66891 34.4328 6.54663C36.5411 4.42435 39.0483 2.73994 41.8101 1.59058C44.572 0.441213 47.5338 -0.150391 50.5253 -0.150391C53.5167 -0.150391 56.4787 0.441213 59.2405 1.59058C62.0023 2.73994 64.5095 4.42435 66.6177 6.54663C68.726 8.66891 70.3936 11.1873 71.5246 13.9567C72.6556 16.7261 73.2276 19.6917 73.2078 22.6831" fill="#FB8500"/>
<path d="M90.486 28.8163L76.217 39.2963L75.263 40.0112L71.183 43.0053L70.229 43.6992L69.676 44.0993L63.497 48.6522L51.731 57.2982C51.2684 57.6365 50.7098 57.818 50.1367 57.8161C49.5636 57.8141 49.0062 57.6287 48.546 57.2872L37.955 49.3523L31.776 44.7152L28.793 42.4843L27.839 41.7622L23.768 38.7073L22.814 37.9922L10.565 28.8173C9.57798 28.0892 8.40837 27.6493 7.18625 27.5464C5.96413 27.4435 4.73742 27.6816 3.64258 28.2343C2.54773 28.787 1.62768 29.6326 0.984772 30.677C0.341865 31.7215 0.00129785 32.9238 0.000976562 34.1503V109.601C0.000976562 113.415 1.51603 117.073 4.2128 119.769C6.90957 122.466 10.5672 123.981 14.381 123.981H86.658C90.4717 123.983 94.1301 122.471 96.8285 119.776C99.5269 117.08 101.044 113.424 101.047 109.61V34.1503C101.048 32.9239 100.708 31.7214 100.065 30.6766C99.4232 29.6319 98.5035 28.7859 97.4088 28.2329C96.3142 27.6799 95.0876 27.4415 93.8655 27.5443C92.6434 27.6471 91.4738 28.0871 90.487 28.8152M89.613 101.593C89.6124 104.543 88.4402 107.372 86.3541 109.458C84.268 111.544 81.4389 112.715 78.489 112.715H22.56C19.6105 112.715 16.7817 111.544 14.6956 109.459C12.6095 107.374 11.437 104.546 11.436 101.596V53.2722C11.4364 52.3239 11.6999 51.3943 12.1971 50.5868C12.6944 49.7793 13.406 49.1257 14.2527 48.6986C15.0994 48.2715 16.0479 48.0876 16.9929 48.1675C17.9378 48.2474 18.8421 48.588 19.605 49.1513L29.081 56.2453L29.823 56.7963L32.969 59.1572L33.711 59.7192L36.011 61.4363L40.794 65.0363L48.994 71.1763C49.3498 71.4393 49.7802 71.582 50.2227 71.584C50.6652 71.586 51.0968 71.4471 51.455 71.1873L60.555 64.4953L65.329 60.9683L65.761 60.6563L66.494 60.1253L69.659 57.8032L70.392 57.2522L81.433 49.1522C82.1956 48.5883 83.0997 48.2471 84.0448 48.1668C84.9898 48.0864 85.9386 48.2699 86.7855 48.6969C87.6324 49.1239 88.3441 49.7777 88.8414 50.5853C89.3386 51.393 89.602 52.3228 89.602 53.2713V101.592L89.613 101.593Z" fill="#262626"/>
<path d="M112.915 41.5482C112.918 42.2559 113.06 42.956 113.335 43.6082C113.61 44.2603 114.011 44.8517 114.515 45.3483C115.004 45.8459 115.59 46.2383 116.236 46.5012C116.883 46.7642 117.576 46.8922 118.274 46.8773V48.6333C117.349 48.651 116.431 48.4798 115.575 48.13C114.719 47.7802 113.943 47.2593 113.296 46.5992C112.627 45.9394 112.095 45.1535 111.731 44.2869C111.368 43.4202 111.18 42.4901 111.178 41.5503V33.7063L111.193 30.3823H112.949L112.942 31.3213C112.936 31.9486 112.934 32.7333 112.935 33.6753H117.579V35.1803H112.935C112.935 36.4016 112.932 37.5683 112.928 38.6803C112.923 39.7923 112.921 40.648 112.921 41.2473V41.5472L112.915 41.5482ZM128.75 48.6293C127.02 48.6305 125.344 48.0318 124.006 46.9353C122.668 45.8388 121.752 44.3123 121.414 42.616C121.076 40.9197 121.336 39.1585 122.151 37.6328C122.966 36.1071 124.285 34.9112 125.882 34.2489C127.48 33.5866 129.258 33.499 130.914 34.001C132.569 34.5029 133.999 35.5633 134.96 37.0015C135.921 38.4397 136.353 40.1666 136.183 41.8879C136.014 43.6093 135.252 45.2185 134.029 46.4413C133.346 47.148 132.524 47.7069 131.616 48.0833C130.708 48.4596 129.733 48.6455 128.75 48.6293ZM128.75 35.4592C127.432 35.4627 126.155 35.9229 125.138 36.7615C124.122 37.6 123.427 38.7652 123.172 40.0585C122.917 41.3518 123.119 42.6933 123.742 43.8547C124.366 45.0162 125.372 45.9256 126.591 46.4283C127.809 46.9311 129.164 46.996 130.425 46.6121C131.686 46.2281 132.775 45.419 133.506 44.3225C134.238 43.226 134.567 41.9099 134.437 40.5981C134.307 39.2864 133.727 38.0602 132.795 37.1283C132.27 36.589 131.64 36.1627 130.945 35.8757C130.249 35.5887 129.502 35.447 128.75 35.4592ZM147.11 33.7032V35.4423C146.365 35.4284 145.626 35.5667 144.937 35.8485C144.248 36.1303 143.623 36.5498 143.102 37.0813C142.563 37.6117 142.134 38.2436 141.841 38.9407C141.547 39.6377 141.395 40.3861 141.393 41.1423V48.6283H139.65V41.1423C139.652 40.1554 139.85 39.1787 140.233 38.2689C140.616 37.3591 141.175 36.5343 141.879 35.8423C142.558 35.1488 143.372 34.6015 144.271 34.2339C145.169 33.8662 146.133 33.6859 147.104 33.7042L147.11 33.7032ZM157.995 33.7032V35.4423C157.25 35.4284 156.511 35.5667 155.822 35.8485C155.133 36.1303 154.508 36.5498 153.987 37.0813C153.448 37.6116 153.019 38.2435 152.725 38.9406C152.432 39.6376 152.279 40.386 152.277 41.1423V48.6283H150.534V41.1423C150.536 40.1554 150.735 39.1787 151.117 38.2689C151.5 37.3592 152.059 36.5343 152.763 35.8423C153.442 35.1489 154.256 34.6015 155.155 34.2339C156.053 33.8662 157.017 33.686 157.988 33.7042H157.993L157.995 33.7032ZM176.878 33.7032L169.559 47.9313C169.529 47.9921 169.492 48.0495 169.45 48.1023L165.708 55.3862L164.154 54.5933L167.462 48.1743C167.397 48.0972 167.339 48.0137 167.291 47.9253L159.991 33.7073H161.947L168.423 46.3073L171.823 39.6753H171.838L174.919 33.7113H176.875L176.878 33.7032Z" fill="#262626"/>
<path d="M202.019 40.7682V48.6272H200.28V40.7682C200.275 40.0623 200.132 39.3643 199.857 38.714C199.583 38.0637 199.183 37.4737 198.68 36.9781C197.713 36.0216 196.417 35.4709 195.058 35.4387C193.698 35.4066 192.378 35.8954 191.367 36.8052C190.383 37.6972 189.759 38.9175 189.611 40.2372V48.6232H187.868V40.7922H187.837C187.836 40.5951 187.847 40.3981 187.868 40.2021V26.3752H189.607V36.1132C190.262 35.3438 191.08 34.7292 192.001 34.3132C192.922 33.8972 193.923 33.6902 194.934 33.7072C195.856 33.6903 196.772 33.862 197.625 34.2118C198.478 34.5616 199.251 35.082 199.896 35.7412C200.563 36.3979 201.094 37.1802 201.458 38.043C201.822 38.9057 202.011 39.8319 202.016 40.7682H202.019ZM221.149 41.1682C221.149 41.3443 221.139 41.5203 221.118 41.6952V48.6282H219.381V45.9722C218.249 47.3035 216.685 48.1939 214.962 48.4872C213.24 48.7804 211.469 48.4578 209.96 47.5759C208.452 46.6941 207.302 45.3091 206.712 43.6642C206.122 42.0193 206.131 40.2193 206.736 38.58C207.341 36.9406 208.503 35.5665 210.02 34.6987C211.537 33.8309 213.311 33.5247 215.03 33.834C216.75 34.1432 218.306 35.0481 219.425 36.3899C220.545 37.7317 221.156 39.4249 221.152 41.1722L221.149 41.1682ZM213.678 46.8682C214.999 46.8675 216.279 46.4087 217.3 45.5701C218.321 44.7314 219.019 43.5648 219.276 42.2689C219.533 40.973 219.333 39.6281 218.709 38.4634C218.086 37.2986 217.078 36.3861 215.857 35.8813C214.636 35.3766 213.278 35.3109 212.014 35.6953C210.75 36.0797 209.658 36.8905 208.925 37.9895C208.192 39.0885 207.863 40.4078 207.993 41.7224C208.124 43.0371 208.706 44.2658 209.641 45.1992C210.165 45.7377 210.793 46.1636 211.487 46.4506C212.181 46.7376 212.927 46.8796 213.678 46.8682ZM232.812 33.7021V35.4412C232.068 35.4273 231.328 35.5656 230.639 35.8474C229.95 36.1292 229.325 36.5487 228.804 37.0802C228.265 37.6106 227.836 38.2427 227.543 38.9397C227.25 39.6367 227.097 40.385 227.095 41.1412V48.6272H225.356V41.1412C225.358 40.1542 225.556 39.1773 225.939 38.2675C226.321 37.3576 226.881 36.5329 227.585 35.8412C228.264 35.1467 229.077 34.5985 229.976 34.2301C230.875 33.8617 231.839 33.6811 232.81 33.6992L232.812 33.7021ZM243.697 33.7021V35.4412C242.953 35.4273 242.213 35.5656 241.524 35.8474C240.835 36.1292 240.21 36.5487 239.689 37.0802C239.15 37.6106 238.721 38.2427 238.428 38.9397C238.135 39.6367 237.982 40.385 237.98 41.1412V48.6272H236.241V41.1412C236.243 40.1542 236.441 39.1773 236.824 38.2675C237.206 37.3576 237.766 36.5329 238.47 35.8412C239.149 35.1467 239.962 34.5985 240.861 34.2301C241.76 33.8617 242.724 33.6811 243.695 33.6992L243.697 33.7021ZM247.452 48.6282V33.6862H249.191V48.6262H247.452V48.6282ZM248.321 31.5602C248.045 31.5594 247.778 31.4632 247.566 31.2878C247.353 31.1125 247.208 30.8687 247.155 30.5983C247.101 30.3278 247.144 30.0473 247.274 29.8044C247.404 29.5616 247.615 29.3714 247.87 29.2662C248.124 29.1611 248.408 29.1476 248.671 29.2279C248.935 29.3082 249.163 29.4775 249.316 29.7068C249.469 29.9361 249.538 30.2113 249.51 30.4856C249.483 30.7599 249.362 31.0163 249.167 31.2112C249.057 31.3239 248.925 31.413 248.78 31.473C248.634 31.533 248.478 31.5627 248.321 31.5602ZM262.968 44.6862C262.998 45.176 262.931 45.6671 262.768 46.1302C262.591 46.5929 262.316 47.0116 261.961 47.3572C261.621 47.6765 261.231 47.9368 260.805 48.1272C260.017 48.4718 259.165 48.6424 258.305 48.6272C257.462 48.6266 256.625 48.4738 255.836 48.1761C255.16 47.9201 254.55 47.5171 254.05 46.9962L255.206 45.6761C255.552 46.0662 255.99 46.3647 256.479 46.5452C257.636 46.9993 258.922 46.9993 260.079 46.5452C260.314 46.453 260.529 46.3148 260.71 46.1387C260.892 45.9625 261.036 45.7518 261.135 45.5192C261.22 45.2856 261.252 45.0358 261.228 44.7882C261.217 44.5606 261.148 44.3397 261.028 44.1462C260.683 43.6623 260.231 43.264 259.708 42.9822C259.17 42.6608 258.595 42.3552 257.984 42.0652C257.934 42.0356 257.882 42.0095 257.828 41.9872C257.806 41.9663 257.779 41.9506 257.75 41.9412C257.119 41.6312 256.476 41.2735 255.823 40.8682C255.469 40.6425 255.136 40.3844 254.83 40.0972C254.49 39.7713 254.212 39.3872 254.008 38.9631C253.897 38.7316 253.818 38.4856 253.776 38.2322C253.755 38.0982 253.741 37.9682 253.73 37.8462V37.5042C253.741 37.0217 253.846 36.5462 254.04 36.1042C254.449 35.2473 255.155 34.5684 256.028 34.1942C256.807 33.838 257.655 33.6581 258.512 33.6672C259.362 33.6576 260.207 33.8159 260.996 34.1332C261.612 34.3821 262.172 34.752 262.642 35.2212L261.259 36.3092C260.979 36.0757 260.665 35.8871 260.327 35.7502C259.181 35.2846 257.898 35.2899 256.756 35.7651C256.264 35.9699 255.861 36.3447 255.622 36.8212C255.526 37.0533 255.473 37.3011 255.466 37.5522V37.7522C255.466 37.8095 255.471 37.8667 255.481 37.9232C255.504 38.031 255.541 38.1352 255.591 38.2332C255.872 38.7318 256.288 39.1412 256.791 39.4142C257.378 39.7915 257.99 40.129 258.623 40.4242L258.84 40.5522C259.43 40.8329 260.025 41.1485 260.626 41.4991C261.381 41.9367 262.03 42.5366 262.526 43.2552C262.794 43.6856 262.949 44.1763 262.977 44.6823L262.968 44.6862Z" fill="white"/>
<path d="M187.067 25.5671H190.417V34.2972C191.6 33.4775 192.984 32.996 194.42 32.9048C195.856 32.8136 197.29 33.116 198.567 33.7795C199.844 34.4431 200.916 35.4425 201.667 36.6702C202.417 37.8978 202.819 39.3072 202.828 40.7462V49.4312H199.476V40.7772C199.473 39.9024 199.217 39.047 198.739 38.314C198.262 37.581 197.583 37.0015 196.784 36.645C195.985 36.2885 195.1 36.1702 194.235 36.3043C193.371 36.4385 192.563 36.8194 191.91 37.4012C191.078 38.1524 190.548 39.1802 190.418 40.2932V49.4332H187.068V41.6022H187.037V40.7961C187.036 40.5847 187.047 40.3735 187.068 40.1632V25.5632L187.067 25.5671ZM188.806 27.1802H188.678V47.8252H188.806V40.1921L188.811 40.1401C188.984 38.6318 189.698 37.2374 190.821 36.2162C191.703 35.4243 192.795 34.9039 193.965 34.7175C195.136 34.5311 196.335 34.6866 197.419 35.1653C198.503 35.644 199.426 36.4256 200.077 37.4161C200.728 38.4067 201.079 39.564 201.088 40.7491V47.8232H201.216V40.7822C201.216 39.9491 201.05 39.1243 200.726 38.3563C200.403 37.5884 199.93 36.8927 199.334 36.3102C198.765 35.7241 198.081 35.2617 197.325 34.952C196.569 34.6423 195.757 34.4918 194.94 34.5101C194.043 34.4916 193.153 34.674 192.335 35.0439C191.517 35.4139 190.793 35.962 190.214 36.6482L188.801 38.2281V27.1782L188.806 27.1802Z" fill="#262626"/>
<path d="M221.967 49.4361H218.615V47.8451C217.115 48.944 215.288 49.5055 213.43 49.4389C211.572 49.3724 209.79 48.6817 208.372 47.4784C206.955 46.275 205.984 44.6291 205.616 42.8062C205.249 40.9834 205.506 39.0899 206.347 37.4312C207.187 35.7726 208.562 34.4454 210.25 33.664C211.937 32.8826 213.838 32.6926 215.647 33.1244C217.456 33.5562 219.066 34.5848 220.219 36.0442C221.371 37.5035 221.998 39.3085 221.999 41.1681C222 41.3595 221.989 41.5508 221.967 41.7411V49.4361ZM220.228 47.8231H220.356V41.612C220.373 41.4687 220.382 41.3244 220.382 41.18C220.393 39.6054 219.849 38.0775 218.844 36.8647C217.84 35.652 216.44 34.8322 214.891 34.5496C213.342 34.2671 211.743 34.5399 210.375 35.3199C209.007 36.1 207.958 37.3373 207.413 38.8144C206.867 40.2915 206.86 41.9137 207.392 43.3956C207.925 44.8775 208.963 46.1241 210.323 46.9163C211.684 47.7086 213.281 47.9955 214.832 47.7268C216.384 47.458 217.791 46.6509 218.806 45.4471L220.224 43.784V47.8231H220.228ZM213.722 47.68C212.217 47.6759 210.76 47.1504 209.599 46.1928C208.438 45.2353 207.644 43.905 207.353 42.4283C207.063 40.9516 207.293 39.4199 208.004 38.0937C208.716 36.7675 209.865 35.7289 211.256 35.1546C212.647 34.5803 214.195 34.5059 215.635 34.9439C217.074 35.382 218.318 36.3055 219.154 37.5572C219.989 38.809 220.365 40.3116 220.218 41.8094C220.07 43.3072 219.408 44.7075 218.344 45.7721C217.743 46.3875 217.024 46.8739 216.228 47.2016C215.433 47.5293 214.58 47.6915 213.72 47.6781L213.722 47.68ZM213.722 36.264C212.589 36.2669 211.492 36.6625 210.617 37.3834C209.743 38.1043 209.145 39.1061 208.927 40.218C208.708 41.3299 208.881 42.4832 209.417 43.4817C209.953 44.4801 210.819 45.262 211.866 45.6941C212.914 46.1261 214.079 46.1816 215.163 45.8512C216.247 45.5208 217.183 44.8249 217.812 43.8819C218.44 42.939 218.723 41.8072 218.61 40.6795C218.498 39.5518 217.999 38.4979 217.197 37.6971C216.747 37.2318 216.206 36.8642 215.608 36.6176C215.01 36.3711 214.367 36.2506 213.72 36.264H213.722Z" fill="#262626"/>
<path d="M232.88 32.8991H233.686V36.2491H232.88C232.241 36.2342 231.606 36.3512 231.015 36.593C230.423 36.8347 229.888 37.196 229.442 37.6541C228.976 38.1103 228.606 38.6548 228.353 39.2558C228.101 39.8568 227.97 40.5022 227.97 41.1541V49.4352H224.62V41.1231C224.626 40.0342 224.846 38.9571 225.269 37.9537C225.692 36.9503 226.309 36.0404 227.085 35.2761C227.839 34.5074 228.742 33.9002 229.738 33.4911C230.734 33.0819 231.803 32.8796 232.88 32.8962V32.8991Z" fill="#262626"/>
<path d="M243.797 32.8991H244.602V36.2491H243.797C243.158 36.2342 242.523 36.3512 241.932 36.593C241.34 36.8347 240.805 37.196 240.359 37.6541C239.893 38.1103 239.523 38.6548 239.27 39.2558C239.018 39.8568 238.887 40.5022 238.887 41.1541V49.4352H235.537V41.1231C235.543 40.0342 235.763 38.9571 236.186 37.9537C236.609 36.9503 237.227 36.0404 238.002 35.2761C238.756 34.5074 239.659 33.9002 240.655 33.4911C241.651 33.0819 242.72 32.8796 243.797 32.8962V32.8991ZM242.991 34.6832V34.5551C241.527 34.7028 240.162 35.3643 239.139 36.4222C238.518 37.0325 238.022 37.7588 237.68 38.5602C237.342 39.3861 237.161 40.2678 237.147 41.1601V47.8292H237.275V41.1291C237.28 40.27 237.454 39.4204 237.788 38.6288C238.121 37.8371 238.608 37.1192 239.22 36.5162C240.227 35.4881 241.559 34.8412 242.99 34.6861L242.991 34.6832Z" fill="#262626"/>
<path d="M248.452 28.3643C248.915 28.3637 249.364 28.5236 249.722 28.8168C250.08 29.1099 250.325 29.5181 250.416 29.9718C250.507 30.4256 250.437 30.8968 250.22 31.3052C250.002 31.7135 249.649 32.0337 249.222 32.2112C248.795 32.3887 248.319 32.4126 247.876 32.2787C247.433 32.1448 247.05 31.8614 246.793 31.4769C246.535 31.0924 246.419 30.6306 246.464 30.17C246.509 29.7095 246.712 29.2788 247.039 28.9513C247.224 28.7641 247.444 28.6158 247.686 28.5153C247.929 28.4148 248.19 28.3641 248.452 28.3662V28.3643ZM248.452 30.7572C248.528 30.7566 248.603 30.7335 248.666 30.6907C248.729 30.6479 248.777 30.5874 248.806 30.5168C248.835 30.4463 248.842 30.3688 248.826 30.2942C248.811 30.2196 248.774 30.1513 248.719 30.0979C248.665 30.0445 248.596 30.0083 248.521 29.994C248.447 29.9797 248.369 29.988 248.299 30.0177C248.229 30.0474 248.169 30.0973 248.127 30.1609C248.086 30.2245 248.064 30.2991 248.064 30.3752C248.065 30.4754 248.104 30.5713 248.175 30.6422C248.21 30.6808 248.253 30.7111 248.301 30.731C248.349 30.7509 248.4 30.7598 248.452 30.7572ZM246.776 32.8843H250.128V49.4363H246.776V32.8843ZM248.515 34.4972H248.387V47.8263H248.515V34.4943V34.4972Z" fill="#262626"/>
<path d="M258.605 49.4373H258.456C257.519 49.4351 256.591 49.2658 255.714 48.9373C254.929 48.6385 254.22 48.17 253.637 47.5652L253.114 47.0342L255.366 44.4502L255.973 45.1572C256.232 45.4449 256.558 45.6652 256.921 45.7992C257.414 45.9853 257.935 46.0835 258.462 46.0892C258.959 46.0876 259.452 45.9937 259.915 45.8123C260.189 45.7101 260.411 45.5047 260.535 45.2402C260.578 45.1164 260.592 44.9845 260.578 44.8542V44.8342C260.572 44.7457 260.543 44.6601 260.496 44.5852C260.218 44.2124 259.862 43.9052 259.453 43.6852C258.939 43.3792 258.38 43.0852 257.795 42.8052L257.76 42.7882L257.727 42.7692L257.684 42.7472L257.536 42.6882L257.495 42.6492C256.864 42.3372 256.21 41.9732 255.557 41.5692H255.548C255.151 41.3145 254.779 41.0236 254.436 40.7002C254.026 40.309 253.69 39.8473 253.443 39.3372V39.3262C253.299 39.0263 253.198 38.7074 253.143 38.3792V38.3643C253.119 38.2083 253.1 38.0582 253.089 37.9132V37.4972C253.102 36.9113 253.23 36.3337 253.466 35.7972L253.477 35.7732L253.488 35.7512C253.982 34.7283 254.828 33.9176 255.871 33.4681C256.731 33.0762 257.664 32.8717 258.609 32.8682H258.758C259.683 32.8699 260.599 33.0474 261.458 33.3912C262.174 33.6793 262.824 34.1077 263.372 34.6512L264.027 35.2932L261.406 37.3531L260.906 36.9282C260.693 36.7514 260.453 36.608 260.197 36.5032C259.721 36.3173 259.216 36.2191 258.705 36.2133C258.204 36.2153 257.707 36.3148 257.244 36.5062C256.936 36.6321 256.681 36.8611 256.524 37.1542C256.473 37.2864 256.444 37.4265 256.439 37.5682V37.7682C256.447 37.8032 256.46 37.8369 256.478 37.8682V37.8752C256.695 38.234 257.006 38.5265 257.378 38.7212L257.397 38.7322C257.953 39.0901 258.533 39.4096 259.133 39.6882L259.163 39.7032L259.191 39.7181L259.302 39.7832L259.382 39.8282C259.972 40.1082 260.582 40.4332 261.194 40.7902C262.047 41.2857 262.781 41.9631 263.343 42.7742L263.36 42.7961L263.375 42.8202C263.713 43.363 263.909 43.982 263.945 44.6202C263.98 45.2152 263.897 45.8111 263.702 46.3741L263.689 46.4072C263.469 46.9773 263.128 47.4928 262.689 47.9182L262.68 47.9272C262.277 48.3095 261.813 48.6218 261.308 48.8512L261.293 48.8572C260.443 49.2275 259.528 49.4207 258.601 49.4252L258.605 49.4373ZM256.279 47.4232C256.977 47.6855 257.716 47.821 258.462 47.8232H258.601C259.302 47.8176 259.995 47.671 260.639 47.3922C260.977 47.2376 261.287 47.0288 261.558 46.7742C261.824 46.5138 262.031 46.1994 262.165 45.8522C262.29 45.4947 262.343 45.1161 262.321 44.7382C262.302 44.3751 262.193 44.0224 262.004 43.7122C261.581 43.1011 261.031 42.5892 260.391 42.2122L260.374 42.2032C259.789 41.8612 259.21 41.5532 258.65 41.2902L258.622 41.2772L258.594 41.2622L258.485 41.1992L258.403 41.1532C257.75 40.8485 257.118 40.5 256.512 40.1102C255.883 39.7597 255.367 39.2378 255.023 38.6052C254.942 38.4425 254.882 38.2696 254.847 38.0912C254.826 37.9834 254.815 37.8739 254.815 37.7642V37.5302C254.825 37.1806 254.899 36.836 255.034 36.5132L255.047 36.4832C255.366 35.8358 255.907 35.3243 256.571 35.0413L256.602 35.0262C257.263 34.7497 257.973 34.6063 258.69 34.6042C259.401 34.6103 260.105 34.7457 260.767 35.0042L260.787 35.0112C260.994 35.0969 261.194 35.1971 261.387 35.3112L261.5 35.2222C261.297 35.0921 261.082 34.9816 260.858 34.8922C260.164 34.6139 259.422 34.4746 258.675 34.4822H258.657C257.917 34.4767 257.184 34.6327 256.511 34.9392L256.494 34.9462C255.805 35.2436 255.246 35.7803 254.922 36.4572C254.777 36.7936 254.697 37.1549 254.688 37.5212V37.8212C254.696 37.9142 254.709 38.0103 254.723 38.1143C254.753 38.2892 254.807 38.459 254.884 38.6191C255.045 38.9554 255.266 39.2602 255.534 39.5192C255.803 39.7734 256.095 40.002 256.406 40.2021C257.024 40.5881 257.639 40.9262 258.229 41.2172C258.285 41.2407 258.338 41.2692 258.389 41.3022C258.432 41.3222 258.474 41.3432 258.517 41.3672C259.135 41.6602 259.725 41.9762 260.275 42.3032C260.903 42.6479 261.444 43.1311 261.858 43.7162L261.877 43.7462C262.063 44.0485 262.17 44.3921 262.191 44.7462C262.221 45.1082 262.172 45.4724 262.046 45.8132C261.911 46.1439 261.711 46.4441 261.458 46.6965C261.205 46.9489 260.905 47.1484 260.574 47.2832L260.552 47.2942L260.53 47.3032C259.873 47.5662 259.172 47.702 258.464 47.7032C257.744 47.7001 257.03 47.5693 256.355 47.3171H256.338C256.018 47.1932 255.714 47.0326 255.432 46.8383L255.345 46.9382C255.631 47.1436 255.944 47.3098 256.275 47.4323L256.279 47.4232Z" fill="#262626"/>
</g>
<defs>
<clipPath id="clip0_25_442">
<rect width="422.501" height="133.847" fill="white"/>
</clipPath>
</defs>
</svg>
